<?xml version="1.0" encoding="UTF-8" standalone="no"?> <svg id="f0abc413-56d9-4574-866a-5755a92426a9" data-name="lline" xmlns="http://www.w3.org/2000/svg" viewBox="0 0 64 64"><title>1</title><path d="M55.999,25.07227c2.80617-3.48442-2.78979-8.81715-4.7528-10.78813l.36315-.48336a1.00207,1.00207,0,0,0,.2002-.585c.06934-4.35937-5.65723-7.70215-5.90137-7.84277-7.68622-3.08523-12.27395-.189-13.89352,1.5518-1.32913-1.39653-4.313-3.55473-9.605-2.74321a.99974.99974,0,0,0,.30082,1.97656c6.08248-.92382,8.33492,2.70508,8.42476,2.85352a1.00989,1.00989,0,0,0,1.72608.00681c.12842-.2158,3.25683-5.21287,12.11621-1.873,1.36621.80762,4.60742,3.24023,4.82129,5.73535-.48838.67246-1.39988,1.49988-.55758,2.28126,2.01666,1.82012,7.20378,7.06628,4.98351,8.82909a1.00062,1.00062,0,0,0-.34,1.22168c1.30025,3.05,3.99482,10.88054.4464,10.52055a1.00429,1.00429,0,0,0-1.0714,1.0029c-.04715,1.74731-.32437,8.55207-3.67373,7.85947a1.004,1.004,0,0,0-1.19346.72353c-.50488,1.93945-1.91113,5.2666-3.53516,5.9375a1.65568,1.65568,0,0,1-1.58887-.19825,1.00434,1.00434,0,0,0-1.167.1084C39.28516,53.63086,34.11914,57.60059,32,57.98828c-2.11768-.38769-7.28418-4.35742-10.10156-6.82129a1.004,1.004,0,0,0-1.167-.1084,1.64853,1.64853,0,0,1-1.58936.19825c-1.624-.6709-3.0293-3.998-3.53418-5.9375a1.00015,1.00015,0,0,0-1.19336-.72364c-3.35931.69447-3.61952-6.11805-3.67442-7.85929A.99984.99984,0,0,0,10.42334,36a.98359.98359,0,0,0-.75488-.2666c-.86328.0664-1.18506-.2334-1.34571-.46192-1.12011-1.59082.37354-6.83886,1.79248-10.05859a1.00075,1.00075,0,0,0-.33984-1.22168,1.18277,1.18277,0,0,1-.55859-.97363c-.11231-2.085,3.33984-5.92481,5.54248-7.85547a1.001,1.001,0,0,0,.14013-1.35352l-.69873-.92871c.21485-2.501,3.47168-4.93945,4.832-5.74023A1.00037,1.00037,0,0,0,18.37838,5.25c-.44692.16515-6.17653,3.44746-6.18848,7.96572-.04281.37544.36734.788.56447,1.06939-1.96631,1.969-7.55747,7.30373-4.75353,10.78711-1.06883,2.8069-4.52162,11.4366.76219,12.6163.08476,2.57622.94072,9.04089,5.15451,8.97255.66141,2.37833,3.3104,8.091,7.16752,6.44524C23.01348,54.72456,28.98912,59.72343,32,60c3.00988-.27451,8.98732-5.276,10.91506-6.89355,3.8541,1.63908,6.50859-4.06281,7.16786-6.44546a3.77811,3.77811,0,0,0,2.34482-.81043c2.249-1.79786,2.71485-6.16407,2.80957-8.16211C60.52656,36.50787,57.0628,27.87806,55.999,25.07227Z"/><path d="M48.76074,24.24316a5.32952,5.32952,0,0,0,.1836-4.13671c-1.62874-5.09585-7.44984-5.50395-9.91281-1.62059a8.15083,8.15083,0,0,0-6.54252.49028,8.22,8.22,0,0,0-6.07843-.64515c-2.52731-3.75655-8.23058-3.20085-9.80073,1.77656a4.97,4.97,0,0,0,3.14267,6.611,18.309,18.309,0,0,0,1.96907,12.60959c-1.14475,2.31458-.95766,6.9699,3.27331,7.6632a8.54882,8.54882,0,0,0,7.4915,7.46178,8.55117,8.55117,0,0,0,7.48947-7.46382c4.25971-.69259,4.40242-5.37153,3.26753-7.66934a16.11329,16.11329,0,0,0,1.948-5.16078.99956.99956,0,0,0-1.96289-.37891,14.35763,14.35763,0,0,1-1.33442,3.8819,5.77094,5.77094,0,0,0-3.6441-1.252H36.17346c-1.10889-2.991-6.26949-2.98644-7.37707.00011-1.90058-.0605-4.2592-.0767-5.71426,1.24776-2.40779-5.01244-2.30208-11.00863.45524-14.85726a6.13977,6.13977,0,0,1,8.40306-1.833,1.08782,1.08782,0,0,0,1.09863-.002c3.29117-2.21985,9.10846-.764,10.31155,6.60169.35236,1.03389-.36126,3.34084,1.18932,3.413A1.00026,1.00026,0,0,0,45.54,29.96973a16.69842,16.69842,0,0,0-.28258-3.04761A5.864,5.864,0,0,0,48.76074,24.24316ZM32.48529,52.41931c-4.50665-1.06909-5.33935-4.25445-5.48968-5.44848a17.07559,17.07559,0,0,1,2.74463-.3009c1.91268.03358,6.42943-.15312,8.23505.3018C37.82452,48.16711,36.9892,51.35132,32.48529,52.41931Zm8.5772-12.79822a4.06849,4.06849,0,0,1,.54684,3.84769c-.0898.33786-.67867,1.99509-3.48433,1.50681a21.8912,21.8912,0,0,0-4.63966-.3056V40.56451a3.6723,3.6723,0,0,0,2.69171-2.15435C37.81231,38.3964,39.98512,38.20332,41.06249,39.62109Zm-8.57714-3.47851c2.49586.06681,2.49856,2.47821,0,2.54492C29.9852,38.62059,29.98852,36.20923,32.48535,36.14258Zm-3.69256,2.26758a3.6736,3.6736,0,0,0,2.69256,2.15435v4.10541H29.74023a16.61354,16.61354,0,0,0-2.89257.30469c-2.80713.499-3.398-1.168-3.49414-1.5332-.83927-2.64242.63233-5.03042,3.36675-5.03126Zm-6.845-16.82227a11.56938,11.56938,0,0,0-1.67535,3.18073c-1.80268-.828-2.3612-2.11772-1.75531-4.05866a3.979,3.979,0,0,1,2.74414-2.77441,3.28178,3.28178,0,0,1,3.275,1.25213A9.72607,9.72607,0,0,0,21.94775,21.58789Zm25.04053,1.72949a3.87409,3.87409,0,0,1-2.22656,1.64856,10.905,10.905,0,0,0-3.93851-5.53471A3.40155,3.40155,0,0,1,44.293,17.93555C46.319,18.26823,47.96133,21.49,46.98828,23.31738Z"/><path d="M24.96924,27.53418A1.00058,1.00058,0,0,0,26.251,29.06929a1.85412,1.85412,0,0,1,2.206.06548A.99975.99975,0,1,0,29.54779,27.459,3.85653,3.85653,0,0,0,24.96924,27.53418Z"/><path d="M35.32129,27.53418a1.00043,1.00043,0,0,0,1.28129,1.53511,1.8539,1.8539,0,0,1,2.205.06548A1,1,0,0,0,39.89935,27.459,3.85765,3.85765,0,0,0,35.32129,27.53418Z"/></svg>